<svg xmlns="http://www.w3.org/2000/svg" width="600" height="600" viewBox="0 0 600 600" fill="none">
  <rect width="600" height="600" fill="#f6f1e8"/>
  <rect x="170" y="150" width="260" height="220" rx="16" fill="#2a251e"/>
  <g fill="#f6f1e8" opacity="0.85">
    <circle cx="215" cy="195" r="9"/><circle cx="260" cy="195" r="9"/><circle cx="305" cy="195" r="9"/><circle cx="350" cy="195" r="9"/><circle cx="395" cy="195" r="9"/>
    <circle cx="215" cy="240" r="9"/><circle cx="260" cy="240" r="9"/><circle cx="305" cy="240" r="9"/><circle cx="350" cy="240" r="9"/><circle cx="395" cy="240" r="9"/>
    <circle cx="215" cy="285" r="9"/><circle cx="260" cy="285" r="9"/><circle cx="305" cy="285" r="9"/><circle cx="350" cy="285" r="9"/><circle cx="395" cy="285" r="9"/>
    <circle cx="215" cy="330" r="9"/><circle cx="260" cy="330" r="9"/><circle cx="305" cy="330" r="9"/><circle cx="350" cy="330" r="9"/><circle cx="395" cy="330" r="9"/>
  </g>
  <line x1="300" y1="370" x2="300" y2="440" stroke="#1b1813" stroke-width="10"/>
  <rect x="255" y="440" width="90" height="16" rx="6" fill="#1b1813"/>
  <text x="300" y="520" text-anchor="middle" font-family="Arial, sans-serif" font-size="22" letter-spacing="3" fill="#6f665a">Painel de LED</text>
</svg>
