<svg xmlns="http://www.w3.org/2000/svg" width="800" height="1000" viewBox="0 0 800 1000" fill="none">
  <defs>
    <linearGradient id="bg" x1="0" y1="0" x2="0" y2="1">
      <stop offset="0" stop-color="#ece3d4"/>
      <stop offset="1" stop-color="#d8c9b0"/>
    </linearGradient>
    <radialGradient id="glow" cx="50%" cy="38%" r="55%">
      <stop offset="0" stop-color="#faf7f1" stop-opacity="0.9"/>
      <stop offset="1" stop-color="#faf7f1" stop-opacity="0"/>
    </radialGradient>
    <linearGradient id="suit" x1="0" y1="0" x2="0" y2="1">
      <stop offset="0" stop-color="#2a251e"/>
      <stop offset="1" stop-color="#14110d"/>
    </linearGradient>
  </defs>
  <rect width="800" height="1000" fill="url(#bg)"/>
  <rect width="800" height="1000" fill="url(#glow)"/>
  <!-- silhouette -->
  <g>
    <path d="M260 1000c0-150 50-250 140-250s140 100 140 250z" fill="url(#suit)"/>
    <path d="M400 470c70 0 110-55 110-130S470 210 400 210s-110 55-110 130 40 130 110 130z" fill="#b9a888"/>
    <path d="M300 360c0-70 45-120 100-120s100 50 100 120c0-40-30-70-100-70s-100 30-100 70z" fill="#3a342a"/>
    <path d="M330 760c20-30 45-45 70-45s50 15 70 45l-15 60h-110z" fill="#1b1813"/>
  </g>
  <text x="400" y="930" text-anchor="middle" font-family="Georgia, serif" font-size="30" letter-spacing="8" fill="#faf7f1" opacity="0.85">DANIEL DE JESUS</text>
  <text x="400" y="965" text-anchor="middle" font-family="Arial, sans-serif" font-size="13" letter-spacing="5" fill="#c4a373">SUBSTITUA POR FOTO EDITORIAL</text>
</svg>
